PathFileType	4	(X/Y/Z)	D:\TRACE\v60_Jaco2_6-2-23\JustArmDRS_Motion3_2-platform.trc
DataRate	CameraRate	NumFrames	NumMarkers	Units	OrigDataRate	OrigDataStartFrame	OrigNumFrames
100.00	100.00	      30	5	mm	100.00	1	      7000
Frame#	Time	Left_Front			Right_Front			Left_Aft			Right_Aft			Post			
		X1	Y1	Z1	X2	Y2	Z2	X3	Y3	Z3	X4	Y4	Z4	X5	Y5	Z5	

1	0.000	-814.46448	128.13579	-611.47937	755.81818	125.60751	-588.83398	-746.02155	-73.75009	504.16425	668.69580	-92.34287	608.31427	-21.58109	1462.16479	-684.23193	
2	0.010	-814.67542	128.36841	-611.91998	755.81580	125.60346	-588.85437	-746.03107	-73.73713	504.19266	668.70795	-92.36382	608.29132	-21.54406	1462.16211	-684.21655	
3	0.020	-814.69586	128.38458	-611.90820	755.78632	125.60769	-588.84625	-746.03986	-73.72190	504.16693	668.74811	-92.31443	608.30621	-21.58145	1462.15234	-684.23340	
4	0.030	-814.69702	128.36354	-611.90210	755.80426	125.59025	-588.83746	-746.03833	-73.70803	504.17593	668.72412	-92.40290	608.24432	-21.51641	1462.14355	-684.23077	
5	0.040	-814.53351	128.13495	-611.54736	755.79602	125.60683	-588.84253	-746.02130	-73.75031	504.15305	668.72687	-92.37691	608.27026	-21.51993	1462.15015	-684.22070	
6	0.050	-814.68866	128.39912	-611.89417	755.80518	125.60931	-588.83698	-746.04858	-73.72906	504.15555	668.67932	-92.40961	608.27234	-21.49838	1462.14905	-684.22284	
7	0.060	-814.66718	128.35367	-611.88080	755.79401	125.60023	-588.85504	-746.01721	-73.73685	504.14624	668.67493	-92.38266	608.29144	-21.53937	1462.16638	-684.22614	
8	0.070	-814.66882	128.33562	-611.91785	755.79626	125.60313	-588.83301	-746.03662	-73.73460	504.19220	668.67896	-92.41345	608.27393	-21.47380	1462.12939	-684.19427	
9	0.080	0.00000	0.00000	-611.91492	755.80750	125.58166	-588.82605	-746.00201	-73.80584	504.20068	668.72321	-92.36507	608.29022	-21.52165	1462.14990	-684.22156	
10	0.090	-814.65356	128.31805	-611.90887	755.79279	125.59874	-588.83917	-746.02948	-73.76664	504.16336	668.66669	-92.39142	608.31696	-21.56726	1462.17017	-684.21088	
11	0.100	-814.38403	128.01012	-611.43335	755.75964	125.55918	-588.87463	-746.02887	-73.77626	504.22385	668.68561	-92.40292	608.28564	-21.56510	1462.17456	-684.22302	
12	0.110	-814.69800	128.37447	-611.89075	755.81580	125.59313	-588.83191	-746.00604	-73.74377	504.17734	668.65155	-92.37924	608.32367	-21.54819	1462.18274	-684.24628	
13	0.120	-814.66168	128.32591	-611.88483	755.82104	125.58561	-588.84985	-746.03137	-73.71680	504.19116	668.67902	-92.40492	608.29706	-21.53243	1462.16492	-684.23297	
14	0.130	-814.36737	128.04318	-611.38776	755.80664	125.57090	-588.83612	-746.01605	-73.80097	504.19141	668.63934	-92.39924	608.34253	-21.51655	1462.13428	-684.21857	
15	0.140	-814.65637	128.32350	-611.87189	755.81842	125.57642	-588.82855	-746.01514	-73.79839	504.20459	668.71674	-92.38036	608.29120	-21.53992	1462.17041	-684.21796	
16	0.150	0.00000	0.00000	-611.91699	755.81097	125.55875	-588.83075	-746.01160	-73.79257	504.19431	668.86267	-92.48295	608.32147	-21.50222	1462.13831	-684.23322	
17	0.160	-814.67609	128.34853	-611.93909	755.80029	125.57710	-588.84515	-746.03314	-73.74898	504.18143	668.66931	-92.41840	608.25177	-21.52462	1462.13892	-684.23907	
18	0.170	-814.68347	128.35686	-611.88495	755.76361	125.59634	-588.86188	-746.02423	-73.74309	504.17242	668.69220	-92.36600	608.29132	-21.51422	1462.17639	-684.23462	
19	0.180	-814.45251	128.12494	-611.45087	755.81482	125.60547	-588.83746	-746.03809	-73.72765	504.13324	668.72699	-92.34376	608.28918	-21.58421	1462.14233	-684.21136	
20	0.190	0.00000	0.00000	-611.93860	755.79004	125.60999	-588.85913	-746.02386	-73.75694	504.17078	668.74658	-92.33292	608.29529	-21.54530	1462.14941	-684.24689	
21	0.200	-814.45752	128.11375	-611.50299	755.79175	125.60703	-588.84839	-746.01959	-73.78208	504.19739	668.74646	-92.33846	608.28192	-21.52506	1462.15833	-684.23376	
22	0.210	-814.39172	128.06908	-611.39502	755.80731	125.59090	-588.84601	-746.01764	-73.72217	504.19791	668.64154	-92.41905	608.27527	-21.57330	1462.17566	-684.22284	
23	0.220	-814.68951	128.39366	-611.88812	755.79156	125.58820	-588.85455	-746.02509	-73.72710	504.17850	668.72424	-92.36348	608.28137	-21.55128	1462.16467	-684.23065	
24	0.230	-814.70056	128.37556	-611.90771	755.81519	125.58092	-588.83856	-746.03607	-73.77577	504.17905	668.66388	-92.38743	608.27338	-21.54420	1462.14990	-684.21051	
25	0.240	-814.68726	128.34439	-611.90308	755.80450	125.58077	-588.85663	-746.01929	-73.76482	504.17792	668.75543	-92.37643	608.24774	-21.62576	1462.18787	-684.23560	
26	0.250	0.00000	0.00000	-611.36969	755.76556	125.58581	-588.84802	-746.00983	-73.78399	504.19867	668.63330	-92.37453	608.35095	-21.51574	1462.14417	-684.20508	
27	0.260	-814.65814	128.28697	-611.87000	755.79883	125.56329	-588.83441	-746.01642	-73.76833	504.20673	668.65131	-92.45583	608.30151	-21.48813	1462.15918	-684.21399	
28	0.270	0.00000	0.00000	-611.93323	755.79486	125.58260	-588.83752	-745.98334	-73.80018	504.21005	668.70996	-92.43144	608.27936	-21.58864	1462.19434	-684.20367	
29	0.280	-814.65680	128.32390	-611.93146	755.79681	125.58273	-588.83923	-746.03406	-73.77644	504.17810	668.58246	-92.45132	608.31250	-21.51924	1462.13965	-684.22699	
30	0.290	-814.64404	128.30756	-611.91498	755.80212	125.59322	-588.83838	-746.01141	-73.74708	504.20602	668.70593	-92.38831	608.26794	-21.57822	1462.17175	-684.21881	
